<svg xmlns="http://www.w3.org/2000/svg" fill="none" viewBox="-1.855 -1.855 52 52" height="52" width="52"><g id="button-play--button-television-buttons-movies-play-tv-video-controls"><path id="Vector" stroke="#f8f9fa" stroke-linecap="round" stroke-linejoin="round" d="M4.95286385 42.52934792857143c0.012382935714285713 0.7188311428571429 0.22151312857142857 1.4204158571428571 0.6046252928571428 2.0285249285714286 0.3831121642857143 0.6081090714285715 0.9255813285714286 1.0996322857142857 1.5684247071428572 1.4207607857142857 0.6419465642857143 0.36286485714285716 1.3667449714285713 0.5536103571428571 2.1040642857142857 0.5536103571428571s1.4621522142857142 -0.1907455 2.1040642857142857 -0.5536103571428571l29.836286935714288 -18.4535406c0.6491555714285715 -0.31274673571428574 1.1969021428571427 -0.8023728428571428 1.5804627142857142 -1.4125514857142858 0.3832156428571429 -0.6101786428571428 0.5863785714285714 -1.31614395 0.5863785714285714 -2.0367342285714285 0 -0.7205902785714287 -0.20316292857142856 -1.4265555857142858 -0.5863785714285714 -2.0367342285714285 -0.3835605714285714 -0.6101786428571428 -0.9313071428571429 -1.09980475 -1.5804627142857142 -1.4125514857142858L11.33404242142857 2.310807572857143c-0.6419120714285714 -0.36271653785714286 -1.3667449714285713 -0.5533240664285715 -2.1040642857142857 -0.5533240664285715s-1.4621177214285714 0.19060752857142857 -2.1040642857142857 0.5533240664285715c-0.6428433785714286 0.3214354864285714 -1.185312542857143 0.8129173092857143 -1.5684247071428572 1.4210436271428573 -0.3831121642857143 0.6081090714285715 -0.5922423571428571 1.3096248000000001 -0.6046252928571428 2.028248985714286V42.52934792857143Z" stroke-width="3.71"></path></g></svg>