<svg xmlns="http://www.w3.org/2000/svg" fill="none" viewBox="-1.855 -1.855 52 52" height="52" width="52"><g id="button-pause-2--button-television-buttons-movies-tv-pause-video-controls"><path id="Vector" stroke="#f8f9fa" stroke-linecap="round" stroke-linejoin="round" d="M13.797142857142857 1.7246428571428571H5.173928571428571c-1.904988760714286 0 -3.4492857142857143 1.5442969535714284 -3.4492857142857143 3.4492857142857143v37.942142857142855c0 1.9050405000000001 1.5442969535714284 3.4492857142857143 3.4492857142857143 3.4492857142857143H13.797142857142857c1.9049715142857142 0 3.4492857142857143 -1.5442452142857142 3.4492857142857143 -3.4492857142857143v-37.942142857142855c0 -1.904988760714286 -1.5443142 -3.4492857142857143 -3.4492857142857143 -3.4492857142857143Z" stroke-width="3.71"></path><path id="Vector_2" stroke="#f8f9fa" stroke-linecap="round" stroke-linejoin="round" d="M43.11607142857143 1.7246428571428571H34.49285714285714c-1.9049715142857142 0 -3.4492857142857143 1.5442969535714284 -3.4492857142857143 3.4492857142857143v37.942142857142855c0 1.9050405000000001 1.5443142 3.4492857142857143 3.4492857142857143 3.4492857142857143h8.623214285714285c1.9050405000000001 0 3.4492857142857143 -1.5442452142857142 3.4492857142857143 -3.4492857142857143v-37.942142857142855c0 -1.904988760714286 -1.5442452142857142 -3.4492857142857143 -3.4492857142857143 -3.4492857142857143Z" stroke-width="3.71"></path></g></svg>