<svg xmlns="http://www.w3.org/2000/svg" fill="none" viewBox="-1.855 -1.855 52 52" height="52" width="52"><g id="clipboard-check--checkmark-edit-task-edition-checklist-check-success-clipboard-form"><path id="Vector" stroke="#f8f9fa" stroke-linecap="round" stroke-linejoin="round" d="M29.31892857142857 1.7246428571428571h-10.347857142857142c-1.9049715142857142 0 -3.4492857142857143 1.5442969535714284 -3.4492857142857143 3.4492857142857143V6.898571428571429c0 1.9049715142857142 1.5443142 3.4492857142857143 3.4492857142857143 3.4492857142857143h10.347857142857142c1.9049715142857142 0 3.4492857142857143 -1.5443142 3.4492857142857143 -3.4492857142857143v-1.7246428571428571c0 -1.904988760714286 -1.5443142 -3.4492857142857143 -3.4492857142857143 -3.4492857142857143Z" stroke-width="3.71"></path><path id="Vector_2" stroke="#f8f9fa" stroke-linecap="round" stroke-linejoin="round" d="M33.63053571428571 5.173928571428571h5.173928571428571c0.9147505714285714 0 1.792248857142857 0.3634167428571428 2.4389899285714285 1.0102612928571428 0.6467410714285714 0.6468790428571429 1.0102957857142858 1.5242048642857142 1.0102957857142858 2.4390244214285715v34.49285714285714c0 0.9147505714285714 -0.3635547142857143 1.792248857142857 -1.0102957857142858 2.4389899285714285s-1.5242393571428572 1.0102957857142858 -2.4389899285714285 1.0102957857142858h-29.31892857142857c-0.9148195571428572 0 -1.7921453785714285 -0.3635547142857143 -2.4390244214285715 -1.0102957857142858 -0.64684455 -0.6467410714285714 -1.0102612928571428 -1.5242393571428572 -1.0102612928571428 -2.4389899285714285v-34.49285714285714c0 -0.9148195571428572 0.3634167428571428 -1.7921453785714285 1.0102612928571428 -2.4390244214285715C7.6933903357142865 5.537345314285714 8.570716157142858 5.173928571428571 9.485535714285714 5.173928571428571h5.173928571428571" stroke-width="3.71"></path><path id="Vector_3" stroke="#f8f9fa" stroke-linecap="round" stroke-linejoin="round" d="m17.24642857142857 31.04357142857143 5.173928571428571 3.4492857142857143 10.347857142857142 -13.797142857142857" stroke-width="3.71"></path></g></svg>