<svg xmlns="http://www.w3.org/2000/svg" fill="none" viewBox="-1.855 -1.855 52 52" height="52" width="52"><g id="cog--work-loading-cog-gear-settings-machine"><path id="Vector" stroke="#f8f9fa" stroke-linecap="round" stroke-linejoin="round" d="m18.039902257142856 7.760892857142857 1.4831928571428572 -3.828707142857143c0.2501422 -0.64824496 0.6902365642857143 -1.2058323435714284 1.2626110357142857 -1.5997373228571428C21.358115114285717 1.9385468614285715 22.036106714285715 1.726695182142857 22.730930828571427 1.7246428571428571h2.8284142857142855c0.6948241142857143 0.0020523250000000002 1.372850207142857 0.2139040042857143 1.9452246785714284 0.6078055342857143 0.5724089642857142 0.3939049792857143 1.0124688357142857 0.9514923628571428 1.2626110357142857 1.5997373228571428l1.4831928571428572 3.828707142857143 5.035819171428571 2.8973999999999998 4.070157142857143 -0.6208714285714285c0.6777846428571429 -0.09199245 1.3676417857142857 0.01955745 1.9819595714285714 0.32050762857142856 0.6139728571428571 0.30095017857142853 1.1248120714285714 0.7776759571428571 1.467326142857143 1.3696423714285715l1.379714285714286 2.4145c0.3535517857142857 0.6013829642857142 0.5167029999999999 1.295827657142857 0.4673782142857143 1.9916865571428573 -0.04932478571428572 0.6958589000000001 -0.3083661428571428 1.3604327785714285 -0.7433210714285714 1.9060062999999998l-2.5179785714285714 3.2078357142857143v5.7947999999999995l2.5869642857142856 3.2078357142857143c0.43495492857142853 0.5455735214285714 0.6939962857142857 1.2101473999999999 0.7433210714285714 1.9060062999999998 0.04932478571428572 0.6958589000000001 -0.11382642857142858 1.3903035928571428 -0.4673782142857143 1.9916865571428573l-1.379714285714286 2.4145c-0.34251407142857143 0.5918974285714286 -0.8533532857142857 1.0685887142857144 -1.467326142857143 1.3697113571428572 -0.6143177857142857 0.30077771428571426 -1.3041749285714286 0.4125345714285714 -1.9819595714285714 0.32043864285714285l-4.070157142857143 -0.6208714285714285 -5.035819171428571 2.8973999999999998 -1.4831928571428572 3.828707142857143c-0.2501422 0.6481207857142858 -0.6902020714285715 1.2058702857142858 -1.2626110357142857 1.5997787142857143 -0.5723744714285715 0.39390842857142855 -1.2504005642857143 0.6056945714285714 -1.9452246785714284 0.6077641428571429h-2.8973999999999998c-0.6948241142857143 -0.0020695714285714284 -1.3728157142857143 -0.2138557142857143 -1.9452246785714284 -0.6077641428571429 -0.5723744714285715 -0.39390842857142855 -1.0124688357142857 -0.9516579285714285 -1.2626110357142857 -1.5997787142857143l-1.4831928571428572 -3.828707142857143 -5.035957142857143 -2.8973999999999998 -4.070157142857143 0.6208714285714285c-0.6777156571428571 0.09209592857142858 -1.3675038142857143 -0.019660928571428572 -1.9816836285714288 -0.32043864285714285 -0.6141453214285715 -0.30112264285714285 -1.1249845357142858 -0.7778139285714286 -1.4676020857142857 -1.3697113571428572l-1.379714285714286 -2.4145c-0.3535517857142857 -0.6013829642857142 -0.5164270571428571 -1.295827657142857 -0.4671712571428572 -1.9916865571428573 0.049255799999999995 -0.6958589000000001 0.3083661428571428 -1.3604327785714285 0.7431141142857143 -1.9060062999999998l2.5179785714285714 -3.2078357142857143V21.247600000000002l-2.5869642857142856 -3.2078357142857143c-0.43474797142857147 -0.5455735214285714 -0.6938583142857143 -1.2101473999999999 -0.7431141142857143 -1.9060062999999998 -0.049255799999999995 -0.6958589000000001 0.11361947142857141 -1.3903035928571428 0.4671712571428572 -1.9916865571428573l1.379714285714286 -2.4145c0.34261755 -0.5919664142857143 0.8534567642857144 -1.068692192857143 1.4676020857142857 -1.3696423714285715 0.6141798142857142 -0.30095017857142853 1.3039679714285715 -0.41250007857142856 1.9816836285714288 -0.32050762857142856l4.070157142857143 0.6208714285714285 5.1049428571428574 -2.8973999999999998Zm-0.7933357142857144 16.384107142857143c0 1.3643994571428573 0.4046012142857143 2.6981692571428573 1.162616242857143 3.8326393285714286 0.7580495214285714 1.1344700714285716 1.8354339142857143 2.0186599714285713 3.0959753785714286 2.540812842857143 1.2605759571428572 0.5221183785714286 2.6476372214285715 0.6587445857142857 3.9858221071428575 0.39256320714285714 1.3381848857142857 -0.2661813785714286 2.567406835714286 -0.9232013214285715 3.532206542857143 -1.8880010285714284 0.9647652142857143 -0.9647652142857143 1.6217851571428572 -2.1939871642857143 1.8879665357142856 -3.53217205 0.2661813785714286 -1.3381848857142857 0.12958966428571428 -2.72524615 -0.39256320714285714 -3.9858221071428575 -0.5221183785714286 -1.2605414642857142 -1.4063427714285714 -2.33796035 -2.540812842857143 -3.0959753785714286C26.84330722857143 17.651029785714286 25.509537428571427 17.24642857142857 24.14513797142857 17.24642857142857c-1.8296046214285713 0 -3.584290757142857 0.7267989928571429 -4.87801435 2.0205570785714286 -1.293723592857143 1.293723592857143 -2.0205570785714286 3.0484097285714284 -2.0205570785714286 4.87801435v0Z" stroke-width="3.71"></path></g></svg>