<svg xmlns="http://www.w3.org/2000/svg" fill="none" viewBox="-1.855 -1.855 52 52" height="52" width="52"><g id="video-swap-camera"><path id="Vector" stroke="#f8f9fa" stroke-linecap="round" stroke-linejoin="round" d="m35.00990507142858 27.812659992857142 -2.9008492857142856 2.192572957142857 -2.192572957142857 -2.9008837785714285" stroke-width="3.71"></path><path id="Ellipse 50" stroke="#f8f9fa" stroke-linecap="round" stroke-linejoin="round" d="M31.948974435714284 29.786686207142857c0.4788988285714285 -0.9200969642857142 0.8038215428571428 -1.9401542285714286 0.9367915071428571 -3.030473442857143 0.5947948285714286 -4.877255507142857 -2.8768077642857146 -9.3132094 -7.7540632714285715 -9.908004228571428 -1.5436243428571428 -0.18826201428571426 -3.0430633357142858 0.03080212142857143 -4.3905268 0.5728918642857143" stroke-width="3.71"></path><path id="Vector_2" stroke="#f8f9fa" stroke-linecap="round" stroke-linejoin="round" d="m13.089349428571428 23.680726142857143 2.9008492857142856 -2.192572957142857 2.192572957142857 2.9008837785714285" stroke-width="3.71"></path><path id="Ellipse 52" stroke="#f8f9fa" stroke-linecap="round" stroke-linejoin="round" d="M16.150314557142856 21.706699928571428c-0.4789333214285714 0.9200969642857142 -0.8038560357142858 1.9401542285714286 -0.936826 3.030473442857143 -0.5947948285714286 4.877255507142857 2.8768077642857146 9.3132094 7.7540632714285715 9.9081422 1.5436243428571428 0.18798607142857143 3.0430978285714287 -0.031043571428571427 4.3905268 -0.5730298357142857" stroke-width="3.71"></path><path id="Vector_3" stroke="#f8f9fa" stroke-linecap="round" stroke-linejoin="round" d="M46.565357142857145 15.521785714285715c0 -0.9148195571428572 -0.3635547142857143 -1.7921453785714285 -1.0102957857142858 -2.4390244214285715C44.90832028571429 12.435916742857144 44.030822 12.0725 43.11607142857143 12.0725h-6.898571428571429L31.04357142857143 5.173928571428571H17.24642857142857l-5.173928571428571 6.898571428571429h-6.898571428571429c-0.9148195571428572 0 -1.7921453785714285 0.3634167428571428 -2.4390140735714287 1.0102612928571428C2.088049252142857 13.729640335714286 1.7246428571428571 14.606966157142857 1.7246428571428571 15.521785714285715v24.145c0 0.9147505714285714 0.36340639500000005 1.792248857142857 1.0102716407142858 2.4389899285714285 0.646868695 0.6467410714285714 1.5241945164285713 1.0102957857142858 2.4390140735714287 1.0102957857142858h37.942142857142855c0.9147505714285714 0 1.792248857142857 -0.3635547142857143 2.4389899285714285 -1.0102957857142858s1.0102957857142858 -1.5242393571428572 1.0102957857142858 -2.4389899285714285v-24.145Z" stroke-width="3.71"></path></g></svg>